name GIL04_fast2.mot
datacolumns 153
datarows 4
range 0.59166658 0.61666656
endheader

                time	           pelvis_tx	           pelvis_ty	           pelvis_tz	         pelvis_tilt	         pelvis_list	     pelvis_rotation	       hip_flexion_r	     hip_adduction_r	      hip_rotation_r	        knee_angle_r	       ankle_angle_r	    subtalar_angle_r	         mtp_angle_r	       hip_flexion_l	     hip_adduction_l	      hip_rotation_l	        knee_angle_l	       ankle_angle_l	    subtalar_angle_l	         mtp_angle_l	    lumbar_extension	      lumbar_bending	     lumbar_rotation	     ground_force_vx	     ground_force_vy	     ground_force_vz	     ground_force_px	     ground_force_py	     ground_force_pz	     ground_force_vx	     ground_force_vy	     ground_force_vz	     ground_force_px	     ground_force_py	     ground_force_pz	     ground_torque_x	     ground_torque_y	     ground_torque_z	     ground_torque_x	     ground_torque_y	     ground_torque_z	    ground_marker_px	    ground_marker_py	    ground_marker_pz	    ground_marker_px	    ground_marker_py	    ground_marker_pz	    ground_marker_px	    ground_marker_py	    ground_marker_pz	    ground_marker_px	    ground_marker_py	    ground_marker_pz	    ground_marker_px	    ground_marker_py	    ground_marker_pz	    ground_marker_px	    ground_marker_py	    ground_marker_pz	    ground_marker_px	    ground_marker_py	    ground_marker_pz	    ground_marker_px	    ground_marker_py	    ground_marker_pz	    ground_marker_px	    ground_marker_py	    ground_marker_pz	    ground_marker_px	    ground_marker_py	    ground_marker_pz	    ground_marker_px	    ground_marker_py	    ground_marker_pz	    ground_marker_px	    ground_marker_py	    ground_marker_pz	    ground_marker_px	    ground_marker_py	    ground_marker_pz	    ground_marker_px	    ground_marker_py	    ground_marker_pz	    ground_marker_px	    ground_marker_py	    ground_marker_pz	    ground_marker_px	    ground_marker_py	    ground_marker_pz	    ground_marker_px	    ground_marker_py	    ground_marker_pz	    ground_marker_px	    ground_marker_py	    ground_marker_pz	    ground_marker_px	    ground_marker_py	    ground_marker_pz	    ground_marker_px	    ground_marker_py	    ground_marker_pz	    ground_marker_px	    ground_marker_py	    ground_marker_pz	    ground_marker_px	    ground_marker_py	    ground_marker_pz	    ground_marker_px	    ground_marker_py	    ground_marker_pz	    ground_marker_px	    ground_marker_py	    ground_marker_pz	    ground_marker_px	    ground_marker_py	    ground_marker_pz	    ground_marker_px	    ground_marker_py	    ground_marker_pz	    ground_marker_px	    ground_marker_py	    ground_marker_pz	    ground_marker_px	    ground_marker_py	    ground_marker_pz	    ground_marker_px	    ground_marker_py	    ground_marker_pz	    ground_marker_px	    ground_marker_py	    ground_marker_pz	    ground_marker_px	    ground_marker_py	    ground_marker_pz	    ground_marker_px	    ground_marker_py	    ground_marker_pz	    ground_marker_px	    ground_marker_py	    ground_marker_pz	    ground_marker_px	    ground_marker_py	    ground_marker_pz	    ground_marker_px	    ground_marker_py	    ground_marker_pz	    ground_marker_px	    ground_marker_py	    ground_marker_pz	    ground_marker_px	    ground_marker_py	    ground_marker_pz	
          0.59166658	          1.87823701	          0.71699464	         -0.16559061	         -3.72022152	          3.94722772	         -1.21964729	        -19.40741158	         -2.37583447	         -0.68598717	        -22.90828514	        -16.66254044	          0.00000000	          0.00000000	         33.56105804	          6.34365892	         -4.96114492	        -20.09622192	         -7.83874464	          0.00000000	          0.00000000	         -4.79652309	         -5.37180519	          5.46832466	         17.28414357	         48.50680290	          4.15903151	          1.48888782	          0.00000000	         -0.13351123	        -68.63289104	        309.94375515	          9.95649063	          2.01680090	          0.00000000	         -0.22013516	          0.00000000	          0.04952811	          0.00000000	          0.00000000	          1.61668701	          0.00000000	          1.81563604	          0.64999199	         -0.17621469	          1.80823636	          0.65197229	         -0.10920180	          1.81316066	          0.65958250	         -0.23470378	          1.68431473	          0.36247635	         -0.11852492	          1.97082496	          0.38037524	         -0.20982009	          1.44728982	          0.13460180	         -0.11117804	          2.02336860	          0.06034901	         -0.21368918	          1.87823701	          0.71699464	         -0.16559061	          1.87454271	          0.71128565	         -0.07144174	          1.88193119	          0.72270370	         -0.25973949	          1.73347461	          0.76102138	         -0.15425229	          1.73329854	          0.75682485	         -0.20922908	          1.68260527	          0.36158296	         -0.06806177	          1.97175443	          0.37645844	         -0.25965777	          1.68391931	          0.36162648	         -0.16703036	          1.98555624	          0.38797787	         -0.15459713	          1.44317579	          0.13993903	         -0.07836282	          2.01704645	          0.05972097	         -0.24759915	          1.44695044	          0.14362411	         -0.13734771	          2.01905823	          0.06598490	         -0.18510807	          1.76630139	          1.10171175	         -0.18361330	          1.85484374	          1.06847262	         -0.12477575	          1.84616446	          1.06612694	         -0.25101733	          1.84540462	          1.05518961	         -0.18965617	          1.88497329	          0.91644067	         -0.18929185	          1.71885169	          0.44884241	          0.01161146	          2.03868341	          0.53765976	         -0.25438282	          1.77089417	          0.49389741	         -0.05407413	          1.95041609	          0.55691242	         -0.20352316	          1.75206423	          0.41291258	         -0.07009117	          1.98667753	          0.47814399	         -0.18883573	          1.50702727	          0.22301674	         -0.00717810	          2.09046412	          0.17163813	         -0.25370371	          1.55145347	          0.25112346	         -0.06766388	          2.02842021	          0.21968034	         -0.23045334	          1.47510469	          0.04569812	         -0.12008907	          2.11573553	          0.04322663	         -0.21791144	
          0.59999990	          1.89096761	          0.71826887	         -0.16705090	         -3.70430756	          4.30009604	         -0.86541802	        -18.25018692	         -3.15197086	         -0.79171419	        -25.69300270	        -19.28996468	          0.00000000	          0.00000000	         32.94293976	          7.21680164	         -4.14274502	        -20.98650742	         -7.17166042	          0.00000000	          0.00000000	         -4.62282658	         -5.85108185	          5.31465673	         11.04389208	         30.67223664	          2.93462820	          1.49109937	          0.00000000	         -0.13328726	        -75.69110480	        334.41545423	         13.07491334	          2.02284094	          0.00000000	         -0.22001237	          0.00000000	         -0.00432899	          0.00000000	          0.00000000	          1.85109546	          0.00000000	          1.82846594	          0.65125781	         -0.17775668	          1.82125425	          0.65276831	         -0.11085980	          1.82563722	          0.66133541	         -0.23632017	          1.70296633	          0.35990086	         -0.11756869	          1.97990251	          0.38100260	         -0.20961860	          1.46045959	          0.13938458	         -0.10998144	          2.02435517	          0.05988831	         -0.21311745	          1.89096761	          0.71826887	         -0.16705090	          1.88767946	          0.71184194	         -0.07293229	          1.89425564	          0.72469574	         -0.26116949	          1.74597752	          0.76206791	         -0.15409912	          1.74547267	          0.75842589	         -0.20920610	          1.70159888	          0.35929683	         -0.06709081	          1.98153841	          0.37715706	         -0.25944364	          1.70469964	          0.35637739	         -0.16578893	          1.97238159	          0.38531661	         -0.15415633	          1.45654905	          0.14481451	         -0.07715654	          2.01875401	          0.05948383	         -0.24715732	          1.46012735	          0.14867829	         -0.13594463	          2.02017760	          0.06556451	         -0.18461685	          1.77842760	          1.10312247	         -0.18454818	          1.86721873	          1.06996953	         -0.12610891	          1.85823572	          1.06744850	         -0.25210765	          1.85787773	          1.05675972	         -0.19081156	          1.89727581	          0.91786695	         -0.19038233	          1.73649108	          0.44766721	          0.01156965	          2.05011511	          0.53803432	         -0.25298199	          1.78795671	          0.49270824	         -0.05484030	          1.96166480	          0.55753493	         -0.20202729	          1.77120686	          0.41096959	         -0.06954102	          1.98667622	          0.47522235	         -0.18681456	          1.52276671	          0.22601466	         -0.00601258	          2.09552431	          0.16938199	         -0.25159481	          1.56840301	          0.25233987	         -0.06624059	          2.02713203	          0.21678467	         -0.22743721	          1.48194075	          0.04821097	         -0.11965659	          2.11712003	          0.04135313	         -0.21689352	
          0.60833323	          1.90340400	          0.71965861	         -0.16842493	         -3.72570705	          4.56983852	         -0.58517075	        -16.88810921	         -3.85308838	         -0.80972201	        -28.59358406	        -21.55232620	          0.00000000	          0.00000000	         32.27840424	          7.93894529	         -3.44390512	        -21.70793343	         -6.37992859	          0.00000000	          0.00000000	         -4.35753250	         -6.21309614	          5.26347733	          6.39807953	         16.88115540	          1.51655991	          1.49243652	          0.00000000	         -0.13162607	        -79.70683845	        353.95012492	         14.00114654	          2.02756201	          0.00000000	         -0.21970480	          0.00000000	         -0.03995423	          0.00000000	          0.00000000	          2.11551172	          0.00000000	          1.84095013	          0.65265656	         -0.17917924	          1.83388281	          0.65382928	         -0.11238012	          1.83783686	          0.66313058	         -0.23780246	          1.72221947	          0.35741943	         -0.11652642	          1.98833764	          0.38149434	         -0.20952301	          1.47469509	          0.14421305	         -0.10889053	          2.02513719	          0.05955198	         -0.21261822	          1.90340400	          0.71965861	         -0.16842493	          1.90043736	          0.71268034	         -0.07432701	          1.90637052	          0.72663689	         -0.26252285	          1.75821602	          0.76332963	         -0.15418251	          1.75747275	          0.76017892	         -0.20940846	          1.72116017	          0.35711229	         -0.06603847	          1.99055290	          0.37767714	         -0.25932786	          1.72657681	          0.35118172	         -0.16431397	          2.00309634	          0.38703930	         -0.15518112	          1.47098315	          0.14969864	         -0.07605184	          2.02005577	          0.05929920	         -0.24674100	          1.47446418	          0.15375860	         -0.13463241	          2.02055740	          0.06535453	         -0.18416172	          1.79038286	          1.10475659	         -0.18546908	          1.87955356	          1.07158804	         -0.12719755	          1.87019992	          1.06894124	         -0.25310367	          1.87053275	          1.05845630	         -0.19192213	          1.90943027	          0.91942334	         -0.19137615	          1.75434363	          0.44661278	          0.01161656	          2.06096315	          0.53806055	         -0.25191230	          1.80536735	          0.49172002	         -0.05537640	          1.97230160	          0.55774707	         -0.20126274	          1.79093564	          0.40930843	         -0.06867431	          2.00674200	          0.47770387	         -0.18754832	          1.53941512	          0.22893596	         -0.00488026	          2.09985065	          0.16719718	         -0.25004655	          1.58620775	          0.25368795	         -0.06480892	          2.03815055	          0.21765342	         -0.22746275	          1.49032760	          0.05119839	         -0.11911104	          2.11819816	          0.03996672	         -0.21613671	
          0.61666656	          1.91552782	          0.72115302	         -0.16968536	         -3.79715919	          4.74597788	         -0.36756229	        -15.31459332	         -4.44772863	         -0.80532920	        -31.58046722	        -23.33039856	          0.00000000	          0.00000000	         31.58821106	          8.49660587	         -2.90140224	        -22.25527000	         -5.51567602	          0.00000000	          0.00000000	         -4.24551153	         -6.46903181	          5.18871880	          3.09239138	          7.49596009	          0.39884072	          1.49287976	          0.00000000	         -0.12861591	        -80.88624087	        369.72797330	         13.21001058	          2.03105945	          0.00000000	         -0.21929065	          0.00000000	         -0.05798319	          0.00000000	          0.00000000	          2.30486816	          0.00000000	          1.85300577	          0.65419817	         -0.18041843	          1.84610212	          0.65516573	         -0.11370824	          1.84971297	          0.66496336	         -0.23910312	          1.74203515	          0.35515100	         -0.11543496	          1.99613357	          0.38187388	         -0.20955004	          1.48996782	          0.14906302	         -0.10794917	          2.02577877	          0.05931605	         -0.21219866	          1.91552782	          0.72115302	         -0.16968536	          1.91281867	          0.71380198	         -0.07560343	          1.91823709	          0.72850412	         -0.26376730	          1.77019155	          0.76483870	         -0.15448363	          1.76929164	          0.76210886	         -0.20980842	          1.74119830	          0.35515067	         -0.06494190	          1.99875796	          0.37803417	         -0.25933325	          1.74887955	          0.34652776	         -0.16276766	          2.00957489	          0.38651431	         -0.15611754	          1.48644364	          0.15456694	         -0.07509287	          2.02100801	          0.05915814	         -0.24636683	          1.49018466	          0.15853177	         -0.13347505	          2.02085400	          0.06512093	         -0.18376829	          1.80211520	          1.10651493	         -0.18626201	          1.89167213	          1.07337129	         -0.12807627	          1.88207221	          1.07063031	         -0.25397658	          1.88247442	          1.06019008	         -0.19277988	          1.92155838	          0.92118973	         -0.19221766	          1.77225423	          0.44576994	          0.01173730	          2.07119393	          0.53771073	         -0.25128379	          1.82284033	          0.49109352	         -0.05575847	          1.98222220	          0.55791247	         -0.20156807	          1.81083393	          0.40812322	         -0.06769769	          2.01512337	          0.47735733	         -0.18787378	          1.55690408	          0.23178767	         -0.00382125	          2.10348272	          0.16511770	         -0.24908453	          1.60485399	          0.25521401	         -0.06362285	          2.04224062	          0.21711658	         -0.22706023	          1.50048256	          0.05458420	         -0.11843447	          2.11902761	          0.03898045	         -0.21559717	
